/vscmnt/brussel_pixiu_data/_data_brussel/112/vsc11236/PredSimResults/SUBJ07opt3D/trackIG/worker_01.mot
version=1
nRows=11
nColumns=50
inDegrees=yes
endheader
                time	         pelvis_tilt	         pelvis_list	     pelvis_rotation	           pelvis_tx	           pelvis_ty	           pelvis_tz	       hip_flexion_r	     hip_adduction_r	      hip_rotation_r	        knee_angle_r	       ankle_angle_r	         mtp_angle_r	       hip_flexion_l	     hip_adduction_l	      hip_rotation_l	        knee_angle_l	       ankle_angle_l	         mtp_angle_l	    lumbar_extension	      lumbar_bending	     lumbar_rotation	 ercspn_r/activation	 intobl_r/activation	 extobl_r/activation	    abd_r/activation	    add_r/activation	hamstrings_r/activation	bifemsh_r/activation	glut_max_r/activation	iliopsoas_r/activation	rect_fem_r/activation	  vasti_r/activation	gastroc_r/activation	 soleus_r/activation	tib_ant_r/activation	 ercspn_l/activation	 intobl_l/activation	 extobl_l/activation	    abd_l/activation	    add_l/activation	hamstrings_l/activation	bifemsh_l/activation	glut_max_l/activation	iliopsoas_l/activation	rect_fem_l/activation	  vasti_l/activation	gastroc_l/activation	 soleus_l/activation	tib_ant_l/activation	
          0.77469527	         -0.48637417	          1.34120186	        -10.16809518	          0.46481716	          0.87237657	          0.02559853	        -11.75150071	         -0.75847794	          2.40721414	         -5.40785066	         11.69080691	         16.15167598	         22.81958724	         -1.06082082	         -3.42735950	        -11.89725040	         -0.20152445	          0.22680437	         -5.74361587	          2.90117705	         -1.66664964	          0.03848953	          0.00999999	          0.00999999	          0.06097473	          0.00999999	          0.01000017	          0.11156968	          0.01000000	          0.15229259	          0.01000001	          0.00999999	          0.10810408	          0.22328127	          0.02414024	          0.11982106	          0.11635913	          0.01153563	          0.01000000	          0.08723080	          0.02359184	          0.10498019	          0.03714277	          0.01583147	          0.01168016	          0.01000002	          0.01447571	          0.01088078	          0.26917471	
          0.79018917	         -0.55732517	          1.17921787	         -9.74481231	          0.47581931	          0.87106255	          0.02429952	        -12.00757327	         -0.62162460	          1.60756683	         -6.32519438	         11.63684479	         17.33311913	         22.34651939	         -0.85931697	         -3.20310587	        -12.32459378	         -0.31093837	          0.22365226	         -5.64936356	          2.56192979	         -1.50039382	          0.05794839	          0.00999999	          0.00999999	          0.04937161	          0.01000000	          0.01000039	          0.08867181	          0.01000001	          0.12103699	          0.01000004	          0.01000000	          0.10562413	          0.22738571	          0.01918585	          0.11482410	          0.10630230	          0.01000000	          0.00999999	          0.09291286	          0.03372751	          0.08612813	          0.04973812	          0.01258232	          0.01000000	          0.00999999	          0.01150481	          0.00999999	          0.28649951	
          0.80568308	         -0.62431168	          1.02103813	         -9.26891207	          0.48706638	          0.86998415	          0.02285209	        -12.19502536	         -0.48706158	          0.77567108	         -7.39645736	         11.46232846	         18.57811926	         21.88942504	         -0.67910783	         -2.94993247	        -12.71722161	         -0.52798747	          0.22022985	         -5.53673537	          2.19643627	         -1.31446623	          0.07264963	          0.00999999	          0.00999999	          0.03923891	          0.01000000	          0.01000079	          0.07047336	          0.01000001	          0.09619611	          0.01583159	          0.01365246	          0.08750826	          0.22681625	          0.01524826	          0.11509751	          0.10019623	          0.01000000	          0.02820201	          0.10286485	          0.03926672	          0.06845173	          0.04804204	          0.01000001	          0.01000000	          0.01284527	          0.01000000	          0.00999999	          0.30487603	
          0.82117698	         -0.68650976	          0.86309028	         -8.74027048	          0.49849550	          0.86927150	          0.02124571	        -12.29514211	         -0.35383906	         -0.08949963	         -8.63815135	         11.11683861	         19.87482744	         21.49678530	         -0.51558487	         -2.72556344	        -13.21549196	         -0.67976547	          0.21671993	         -5.40870905	          1.81528225	         -1.11088154	          0.08671398	          0.00999999	          0.00999999	          0.03118576	          0.01000000	          0.01000053	          0.05600984	          0.01000003	          0.07645341	          0.01258247	          0.02069787	          0.06954861	          0.22112637	          0.01211880	          0.11455062	          0.07963261	          0.01000000	          0.04646722	          0.10527702	          0.04526228	          0.05440313	          0.04770074	          0.01000000	          0.01000000	          0.03018922	          0.01000000	          0.00999999	          0.31454346	
          0.83667089	         -0.74422972	          0.70214193	         -8.16490982	          0.51007074	          0.86908992	          0.01949136	        -12.30220063	         -0.22274289	         -0.98653088	        -10.03664961	         10.52105505	         21.21661491	         21.13912192	         -0.36036024	         -2.51918321	        -13.80491653	         -0.60531839	          0.24859043	         -5.26151056	          1.42966781	         -0.89279052	          0.10138353	          0.00999999	          0.00999999	          0.02478539	          0.01000002	          0.01271995	          0.04451473	          0.01428538	          0.06076259	          0.01000018	          0.02887031	          0.05527488	          0.21025055	          0.00999999	          0.11296669	          0.06328930	          0.01000000	          0.05930601	          0.10297204	          0.04857085	          0.04323778	          0.05527759	          0.01000001	          0.01000001	          0.04024312	          0.01000000	          0.00999999	          0.29993777	
          0.85216479	         -0.79815707	          0.53462591	         -7.55144448	          0.52174923	          0.86956280	          0.01760727	        -12.21384815	         -0.09313767	         -1.92209018	        -11.56999026	          9.61853145	         22.57660457	         20.78144282	         -0.20632742	         -2.29237369	        -14.44647864	         -0.23159920	          0.37677181	         -5.09220695	          1.05009848	         -0.66107827	          0.11036983	          0.00999999	          0.00999999	          0.01969859	          0.02230438	          0.01503841	          0.03537881	          0.01583376	          0.04829205	          0.01000002	          0.03690736	          0.04393060	          0.19370977	          0.00999999	          0.10899853	          0.05030020	          0.00999999	          0.06416508	          0.10307700	          0.05232390	          0.03436394	          0.06755048	          0.01000000	          0.01000000	          0.04792215	          0.01000000	          0.00999999	          0.26518521	
          0.86765870	         -0.84923118	          0.35456522	         -6.90618195	          0.53348209	          0.87070784	          0.01561699	        -12.02439610	          0.03905466	         -2.90147772	        -13.23063233	          8.41460132	         23.88725333	         20.37553646	         -0.05429527	         -2.01729509	        -15.03519025	          0.32408166	          0.57845849	         -4.90158233	          0.68601151	         -0.41794475	          0.11433261	          0.00999999	          0.00999999	          0.01565577	          0.03707746	          0.01545080	          0.02811789	          0.01258418	          0.03838089	          0.01000001	          0.04420303	          0.03491456	          0.17197972	          0.00999999	          0.10470067	          0.03997690	          0.00999999	          0.07118502	          0.11203387	          0.05781567	          0.02731132	          0.07207598	          0.01000000	          0.01000000	          0.04877117	          0.01000000	          0.00999999	          0.23281572	
          0.88315260	         -0.89750395	          0.15543327	         -6.23356511	          0.54523164	          0.87240668	          0.01354085	        -11.73009289	          0.17602400	         -3.91667855	        -15.02410067	          6.98660401	         25.03463451	         19.88476807	          0.08672533	         -1.69096997	        -15.48052318	          0.90481451	          0.82304790	         -4.69267255	          0.34522757	         -0.16739510	          0.11542544	          0.00999999	          0.00999999	          0.01244268	          0.04900592	          0.02040443	          0.02234715	          0.01000149	          0.03050383	          0.01000000	          0.04949569	          0.02774891	          0.14833006	          0.00999999	          0.10005365	          0.03177229	          0.00999999	          0.07798572	          0.12063783	          0.06560797	          0.02170613	          0.06959189	          0.01000000	          0.01000000	          0.04904973	          0.01000000	          0.00999999	          0.21010449	
          0.89864651	         -0.94212945	         -0.06552002	         -5.53857285	          0.55697324	          0.87445837	          0.01139548	        -11.33136774	          0.31439138	         -4.96414573	        -16.95989820	          5.45635884	         25.87488629	         19.28873063	          0.20855476	         -1.31791577	        -15.73512719	          1.44457232	          1.09188533	         -4.46902220	          0.03071393	          0.08716766	          0.11567494	          0.00999999	          0.00999999	          0.00999999	          0.05617473	          0.02521536	          0.01776077	          0.01000000	          0.02424341	          0.01000000	          0.05260581	          0.02205389	          0.12607105	          0.00999999	          0.09530436	          0.02525154	          0.00999999	          0.08361074	          0.12449878	          0.07386259	          0.01725132	          0.06466106	          0.01000000	          0.01000000	          0.04980399	          0.01000000	          0.00999999	          0.19611621	
          0.91414041	         -0.98174144	         -0.30781356	         -4.82652727	          0.56868337	          0.87666145	          0.00919347	        -10.82830352	          0.44578965	         -6.04850247	        -19.05069137	          3.93715398	         26.28480749	         18.58596586	          0.30491027	         -0.90730657	        -15.79542802	          1.93761212	          1.36745679	         -4.23499390	         -0.25785427	          0.34332525	          0.11719304	          0.00999999	          0.00999999	          0.00999999	          0.06249634	          0.02522169	          0.01411567	          0.00999999	          0.01926785	          0.01000000	          0.05328267	          0.01752769	          0.10608339	          0.00999999	          0.09140912	          0.02006907	          0.00999999	          0.08786246	          0.12466853	          0.08269696	          0.01371079	          0.06094395	          0.01000000	          0.01000000	          0.05046997	          0.01000000	          0.00999999	          0.18651538	
          0.92963432	         -1.01467039	         -0.57025663	         -4.10217856	          0.58033274	          0.87885591	          0.00694518	        -10.21063858	          0.55974674	         -7.17925966	        -21.32489279	          2.48682519	         26.22430673	         17.78926092	          0.37021957	         -0.47429003	        -15.68518020	          2.39688110	          1.64318604	         -3.99570835	         -0.52128647	          0.59903333	          0.11848657	          0.00999999	          0.01000000	          0.00999999	          0.07531485	          0.02701388	          0.01121867	          0.00999999	          0.01531343	          0.01000000	          0.04908342	          0.01393042	          0.09025465	          0.00999999	          0.08892319	          0.01595022	          0.00999999	          0.08992121	          0.12700726	          0.09192222	          0.01089691	          0.06080787	          0.00999999	          0.01000000	          0.05224258	          0.01000000	          0.00999999	          0.17838145	
